{"title":"Claudia Leitte ft. Daddy Yankee - Corazón (2016)","uid":13695484,"size":130334795,"categoryP":"video","categoryS":"music_videos","magnet":"?xt=urn:btih:edf80d3dd53f256a2901df20847219c7b4675f95&amp;dn=Claudia+Leitte+ft.+Daddy+Yankee+-+Coraz%26oacute%3Bn+%282016%29&amp;tr=udp%3A%2F%2Ftracker.leechers-paradise.org%3A6969&amp;tr=udp%3A%2F%2Fzer0day.ch%3A1337&amp;tr=udp%3A%2F%2Fopen.demonii.com%3A1337&amp;tr=udp%3A%2F%2Ftracker.coppersurfer.tk%3A6969&amp;tr=udp%3A%2F%2Fexodus.desync.com%3A6969","seeders":1,"leechers":0,"uploader":"MeRaDil","files":1,"time":1456686781,"description":"MEDIA INFO\r\n\r\nClaudia Leitte ft. Daddy Yankee - Corazón\r\n\r\nFormat                                   : MPEG-4\r\nFormat profile                           : Base Media\r\nCodec ID                                 : isom (isom/iso2/avc1/mp41)\r\nFile size                                : 124 MiB\r\nDuration                                 : 4mn 14s\r\nOverall bitrate                          : 4 099 Kbps\r\nMusicVid name                            : Corazón\r\nPerformer                                : Claudia Leitte e Daddy Yankee\r\nGenre                                    : Latin Pop\r\nContentType                              : Music Video\r\nRecorded date                            : 2016\r\nWriting application                      : Lavf56.32.100 / MeRaDil\r\nCover                                    : Yes\r\nRating                                   : ***\r\nArtist url                               : http://www.claudialeitte.com/\r\nRelease time                             : Brazil - january 28 - 2016\r\n \nhttp://gifyu.com/images/claudia.png\r\n\r\nVideo\r\nID                                       : 1\r\nFormat                                   : AVC\r\nFormat/Info                              : Advanced Video Codec\r\nFormat profile                           :   \r\nFormat settings, CABAC                   : Yes\r\nFormat settings, ReFrames                : 2 frames\r\nCodec ID                                 : avc1\r\nCodec ID/Info                            : Advanced Video Coding\r\nDuration                                 : 4mn 14s\r\nBit rate                                 : 3 827 Kbps\r\nWidth                                    : 1 920 pixels\r\nHeight                                   : 1 080 pixels\r\nDisplay aspect ratio                     : 16:9\r\nFrame rate mode                          : Variable\r\nFrame rate                               : 23.976 fps\r\nColor space                              : YUV\r\nChroma subsampling                       : 4:2:0\r\nBit depth                                : 8 bits\r\nScan type                                : Progressive\r\nBits/(Pixel*Frame)                       : 0.077\r\nStream size                              : 116 MiB (93%)\r\n\r\nAudio\r\nID                                       : 2\r\nFormat                                   : AAC\r\nFormat/Info                              : Advanced Audio Codec\r\nFormat profile                           : LC\r\nCodec ID                                 : 40\r\nDuration                                 : 4mn 14s\r\nBit rate mode                            : Constant\r\nBit rate                                 : 256 Kbps\r\nChannel(s)                               : 2 channels\r\nChannel positions                        : Front: L R\r\nSampling rate                            : 44.1 KHz\r\nFrame rate                               : 43.066 fps (1024 spf)\r\nCompression mode                         : Lossy\r\nStream size                              : 7.76 MiB (6%)\r\nDefault                                  : Yes\r\nAlternate group                          : 1\r\n                                        ...\r\n \nhttp://gifyu.com/images/ClaudiaLeitte.png","torrent":{"xt":"urn:btih:edf80d3dd53f256a2901df20847219c7b4675f95","amp;dn":"Claudia+Leitte+ft.+Daddy+Yankee+-+Coraz%26oacute%3Bn+%282016%29","amp;tr":["udp%3A%2F%2Ftracker.leechers-paradise.org%3A6969","udp%3A%2F%2Fzer0day.ch%3A1337","udp%3A%2F%2Fopen.demonii.com%3A1337","udp%3A%2F%2Ftracker.coppersurfer.tk%3A6969","udp%3A%2F%2Fexodus.desync.com%3A6969"],"infoHash":"edf80d3dd53f256a2901df20847219c7b4675f95","infoHashBuffer":{"type":"Buffer","data":[237,248,13,61,213,63,37,106,41,1,223,32,132,114,25,199,180,103,95,149]},"announce":[],"urlList":[]}}